<svg width="658" height="678" viewBox="0 0 658 678" fill="none" xmlns="http://www.w3.org/2000/svg">
<g filter="url(#filter0_d_1_3)">
<path fill-rule="evenodd" clip-rule="evenodd" d="M328.321 10.6853C386.008 5.95894 433.723 53.058 481.933 85.0871C527.61 115.433 574.032 145.982 602.51 192.847C631.311 240.244 644.304 295.692 643.607 351.15C642.916 406.216 621.721 457.209 598.564 507.175C573.591 561.058 558.093 631.371 503.215 654.075C447.319 677.2 388.779 620.966 328.321 618.977C270.687 617.081 214.303 662.037 159.948 642.781C104.606 623.175 66.8693 569.755 40.8347 517.13C15.591 466.104 11.7811 407.946 15.671 351.15C19.3877 296.882 31.0846 242.056 62.7055 197.796C93.0596 155.31 145.899 139.192 188.586 109.122C235.972 75.741 270.552 15.4185 328.321 10.6853Z" fill="white"/>
<path d="M484.7 80.9224C474.821 74.3593 464.97 67.162 454.941 59.8347C452.851 58.308 450.754 56.7756 448.647 55.2422C436.483 46.3893 424.046 37.5361 411.264 29.822C385.723 14.4078 358.28 3.21395 327.913 5.70203C297.309 8.2095 273.175 25.444 251.193 45.464C243.947 52.0638 236.781 59.1164 229.676 66.1085C226.041 69.6861 222.422 73.2478 218.816 76.7251C208.057 87.1006 197.232 96.9148 185.707 105.034C171.613 114.962 156.588 123.238 141.371 131.618C133.762 135.809 126.104 140.027 118.492 144.49C95.9699 157.696 74.4351 172.778 58.6371 194.89C26.2329 240.246 14.4258 296.155 10.6826 350.808C6.7678 407.969 10.5376 467.165 36.3532 519.347C62.5034 572.206 100.992 627.2 158.278 647.494C187.147 657.721 216.274 650.765 244.368 642.17C248.605 640.874 252.817 639.542 257.008 638.217C281.108 630.597 304.516 623.197 328.157 623.974C342.549 624.448 357 628.159 371.645 633.273C381.215 636.614 390.61 640.454 400.087 644.328C405.239 646.434 410.416 648.549 415.657 650.6C444.832 662.015 475.169 671.089 505.127 658.695C534.196 646.669 552.497 622.143 566.558 594.59C573.599 580.792 579.665 566.055 585.489 551.528C586.298 549.508 587.103 547.493 587.905 545.485C592.898 532.983 597.782 520.753 603.101 509.277C626.256 459.314 647.901 407.453 648.607 351.213C649.313 294.953 636.137 238.557 606.783 190.25C578.015 142.907 531.441 111.971 486.525 82.135L484.7 80.9224Z" stroke="#7E00FC" stroke-width="10"/>
</g>
<defs>
<filter id="filter0_d_1_3" x="0.365479" y="0.355011" width="657.269" height="677.287" filterUnits="userSpaceOnUse" color-interpolation-filters="sRGB">
<feFlood flood-opacity="0" result="BackgroundImageFix"/>
<feColorMatrix in="SourceAlpha" type="matrix" values="0 0 0 0 0 0 0 0 0 0 0 0 0 0 0 0 0 0 127 0" result="hardAlpha"/>
<feOffset dy="4"/>
<feGaussianBlur stdDeviation="2"/>
<feComposite in2="hardAlpha" operator="out"/>
<feColorMatrix type="matrix" values="0 0 0 0 0 0 0 0 0 0 0 0 0 0 0 0 0 0 0.25 0"/>
<feBlend mode="normal" in2="BackgroundImageFix" result="effect1_dropShadow_1_3"/>
<feBlend mode="normal" in="SourceGraphic" in2="effect1_dropShadow_1_3" result="shape"/>
</filter>
</defs>
</svg>
