<svg width="561" height="503" viewBox="0 0 561 503" fill="none" xmlns="http://www.w3.org/2000/svg">
<path d="M280.25 5.24296C304.643 3.50624 327.163 11.261 349.214 22.8251C360.239 28.6067 371.046 35.2853 381.871 42.1311C383.717 43.2985 385.565 44.4718 387.414 45.6462C396.359 51.325 405.344 57.0299 414.341 62.2243L415.054 62.6359C455.78 86.1468 495.752 109.222 520.24 144.24C545.258 180.017 556.584 221.922 555.977 263.939C555.38 305.256 537.069 343.79 516.408 382.53C511.536 391.665 507.062 401.4 502.619 411.069C501.907 412.618 501.197 414.164 500.485 415.707C495.297 426.953 490.043 438.026 484.004 448.31C471.944 468.845 457.034 485.744 434.123 493.98C410.985 502.298 386.984 496.49 360.989 487.652C356.603 486.161 352.153 484.579 347.65 482.978C326.021 475.288 303.154 467.158 280.038 466.497C257.316 465.848 234.785 472.055 213.374 477.954C209.702 478.966 206.062 479.969 202.461 480.927C177.424 487.582 153.997 492.157 131.259 485.157C83.7629 470.536 50.9461 430.526 27.9423 390.121C6.15104 351.846 2.7148 307.962 6.1479 264.404C9.42329 222.847 19.6912 181.548 46.9574 148.385C59.8082 132.755 77.5804 121.785 97.354 111.71C103.678 108.487 110.264 105.334 116.932 102.14C130.765 95.5155 144.958 88.7187 157.93 80.778C168.811 74.117 178.884 66.158 188.576 58.0365C191.946 55.2119 195.247 52.3881 198.521 49.588C204.765 44.2478 210.908 38.9935 217.239 33.9829C236.414 18.8076 256.017 6.96826 280.25 5.24296Z" stroke="#7E00FC" stroke-width="10"/>
</svg>
