<svg width="569" height="511" viewBox="0 0 569 511" fill="none" xmlns="http://www.w3.org/2000/svg">
<g filter="url(#filter0_d_1_3)">
<path fill-rule="evenodd" clip-rule="evenodd" d="M283.895 0.255587C335.323 -3.40592 377.861 33.0814 420.841 57.8941C461.563 81.4031 502.949 105.069 528.338 141.375C554.014 178.093 565.597 221.049 564.976 264.011C564.36 306.67 545.464 346.175 524.82 384.882C502.556 426.626 488.739 481.097 439.815 498.685C389.983 516.6 337.794 473.036 283.895 471.495C232.514 470.026 182.246 504.853 133.788 489.936C84.4499 474.747 50.8073 433.363 27.5972 392.595C5.09204 353.066 1.69549 308.011 5.16336 264.011C8.47686 221.97 18.9048 179.497 47.0952 145.209C74.1563 112.295 121.263 99.8092 159.319 76.5135C201.564 50.6538 232.393 3.92233 283.895 0.255587Z" fill="#7E00FC"/>
</g>
<defs>
<filter id="filter0_d_1_3" x="0" y="0" width="569" height="511" filterUnits="userSpaceOnUse" color-interpolation-filters="sRGB">
<feFlood flood-opacity="0" result="BackgroundImageFix"/>
<feColorMatrix in="SourceAlpha" type="matrix" values="0 0 0 0 0 0 0 0 0 0 0 0 0 0 0 0 0 0 127 0" result="hardAlpha"/>
<feOffset dy="4"/>
<feGaussianBlur stdDeviation="2"/>
<feComposite in2="hardAlpha" operator="out"/>
<feColorMatrix type="matrix" values="0 0 0 0 0 0 0 0 0 0 0 0 0 0 0 0 0 0 0.25 0"/>
<feBlend mode="normal" in2="BackgroundImageFix" result="effect1_dropShadow_1_3"/>
<feBlend mode="normal" in="SourceGraphic" in2="effect1_dropShadow_1_3" result="shape"/>
</filter>
</defs>
</svg>
