<svg width="630" height="650" viewBox="0 0 630 650" fill="none" xmlns="http://www.w3.org/2000/svg">
<path fill-rule="evenodd" clip-rule="evenodd" d="M314.321 0.685327C372.008 -4.04106 419.723 43.058 467.933 75.0871C513.61 105.433 560.032 135.982 588.51 182.847C617.311 230.244 630.304 285.692 629.607 341.15C628.916 396.216 607.721 447.209 584.564 497.175C559.591 551.058 544.093 621.371 489.215 644.075C433.319 667.2 374.779 610.966 314.321 608.977C256.687 607.081 200.303 652.037 145.948 632.781C90.6059 613.175 52.8693 559.755 26.8347 507.13C1.59096 456.104 -2.21892 397.946 1.67096 341.15C5.38768 286.882 17.0846 232.056 48.7055 187.796C79.0596 145.31 131.899 129.192 174.586 99.1216C221.972 65.741 256.552 5.41849 314.321 0.685327Z" fill="#7E00FC"/>
</svg>
